<svg width="1363" height="163" viewBox="0 0 1363 163" fill="none" xmlns="http://www.w3.org/2000/svg">
<path d="M0 15C0 6.71573 6.71573 0 15 0H37V163H15C6.71573 163 0 156.284 0 148V15Z" fill="#424242"/>
<rect width="1097" height="163" transform="translate(37)" fill="#F0F0F0"/>
<path d="M108.41 43.9375V61H104.895L98.0391 49.5625V61H94.5234V43.9375H98.0391L104.906 55.3867V43.9375H108.41ZM118.102 58.1406V52.4922C118.102 52.0859 118.035 51.7383 117.902 51.4492C117.77 51.1523 117.562 50.9219 117.281 50.7578C117.008 50.5938 116.652 50.5117 116.215 50.5117C115.84 50.5117 115.516 50.5781 115.242 50.7109C114.969 50.8359 114.758 51.0195 114.609 51.2617C114.461 51.4961 114.387 51.7734 114.387 52.0938H111.012C111.012 51.5547 111.137 51.043 111.387 50.5586C111.637 50.0742 112 49.6484 112.477 49.2812C112.953 48.9062 113.52 48.6133 114.176 48.4023C114.84 48.1914 115.582 48.0859 116.402 48.0859C117.387 48.0859 118.262 48.25 119.027 48.5781C119.793 48.9062 120.395 49.3984 120.832 50.0547C121.277 50.7109 121.5 51.5312 121.5 52.5156V57.9414C121.5 58.6367 121.543 59.207 121.629 59.6523C121.715 60.0898 121.84 60.4727 122.004 60.8008V61H118.594C118.43 60.6562 118.305 60.2266 118.219 59.7109C118.141 59.1875 118.102 58.6641 118.102 58.1406ZM118.547 53.2773L118.57 55.1875H116.684C116.238 55.1875 115.852 55.2383 115.523 55.3398C115.195 55.4414 114.926 55.5859 114.715 55.7734C114.504 55.9531 114.348 56.1641 114.246 56.4062C114.152 56.6484 114.105 56.9141 114.105 57.2031C114.105 57.4922 114.172 57.7539 114.305 57.9883C114.438 58.2148 114.629 58.3945 114.879 58.5273C115.129 58.6523 115.422 58.7148 115.758 58.7148C116.266 58.7148 116.707 58.6133 117.082 58.4102C117.457 58.207 117.746 57.957 117.949 57.6602C118.16 57.3633 118.27 57.082 118.277 56.8164L119.168 58.2461C119.043 58.5664 118.871 58.8984 118.652 59.2422C118.441 59.5859 118.172 59.9102 117.844 60.2148C117.516 60.5117 117.121 60.7578 116.66 60.9531C116.199 61.1406 115.652 61.2344 115.02 61.2344C114.215 61.2344 113.484 61.0742 112.828 60.7539C112.18 60.4258 111.664 59.9766 111.281 59.4062C110.906 58.8281 110.719 58.1719 110.719 57.4375C110.719 56.7734 110.844 56.1836 111.094 55.668C111.344 55.1523 111.711 54.7188 112.195 54.3672C112.688 54.0078 113.301 53.7383 114.035 53.5586C114.77 53.3711 115.621 53.2773 116.59 53.2773H118.547ZM130.312 48.3203V50.7109H122.93V48.3203H130.312ZM124.758 45.1914H128.133V57.1797C128.133 57.5469 128.18 57.8281 128.273 58.0234C128.375 58.2188 128.523 58.3555 128.719 58.4336C128.914 58.5039 129.16 58.5391 129.457 58.5391C129.668 58.5391 129.855 58.5312 130.02 58.5156C130.191 58.4922 130.336 58.4688 130.453 58.4453L130.465 60.9297C130.176 61.0234 129.863 61.0977 129.527 61.1523C129.191 61.207 128.82 61.2344 128.414 61.2344C127.672 61.2344 127.023 61.1133 126.469 60.8711C125.922 60.6211 125.5 60.2227 125.203 59.6758C124.906 59.1289 124.758 58.4102 124.758 57.5195V45.1914ZM131.391 54.7891V54.543C131.391 53.6133 131.523 52.7578 131.789 51.9766C132.055 51.1875 132.441 50.5039 132.949 49.9258C133.457 49.3477 134.082 48.8984 134.824 48.5781C135.566 48.25 136.418 48.0859 137.379 48.0859C138.34 48.0859 139.195 48.25 139.945 48.5781C140.695 48.8984 141.324 49.3477 141.832 49.9258C142.348 50.5039 142.738 51.1875 143.004 51.9766C143.27 52.7578 143.402 53.6133 143.402 54.543V54.7891C143.402 55.7109 143.27 56.5664 143.004 57.3555C142.738 58.1367 142.348 58.8203 141.832 59.4062C141.324 59.9844 140.699 60.4336 139.957 60.7539C139.215 61.0742 138.363 61.2344 137.402 61.2344C136.441 61.2344 135.586 61.0742 134.836 60.7539C134.094 60.4336 133.465 59.9844 132.949 59.4062C132.441 58.8203 132.055 58.1367 131.789 57.3555C131.523 56.5664 131.391 55.7109 131.391 54.7891ZM134.766 54.543V54.7891C134.766 55.3203 134.812 55.8164 134.906 56.2773C135 56.7383 135.148 57.1445 135.352 57.4961C135.562 57.8398 135.836 58.1094 136.172 58.3047C136.508 58.5 136.918 58.5977 137.402 58.5977C137.871 58.5977 138.273 58.5 138.609 58.3047C138.945 58.1094 139.215 57.8398 139.418 57.4961C139.621 57.1445 139.77 56.7383 139.863 56.2773C139.965 55.8164 140.016 55.3203 140.016 54.7891V54.543C140.016 54.0273 139.965 53.543 139.863 53.0898C139.77 52.6289 139.617 52.2227 139.406 51.8711C139.203 51.5117 138.934 51.2305 138.598 51.0273C138.262 50.8242 137.855 50.7227 137.379 50.7227C136.902 50.7227 136.496 50.8242 136.16 51.0273C135.832 51.2305 135.562 51.5117 135.352 51.8711C135.148 52.2227 135 52.6289 134.906 53.0898C134.812 53.543 134.766 54.0273 134.766 54.543ZM152.977 57.9648V48.3203H156.352V61H153.176L152.977 57.9648ZM153.352 55.3633L154.348 55.3398C154.348 56.1836 154.25 56.9688 154.055 57.6953C153.859 58.4141 153.566 59.0391 153.176 59.5703C152.785 60.0938 152.293 60.5039 151.699 60.8008C151.105 61.0898 150.406 61.2344 149.602 61.2344C148.984 61.2344 148.414 61.1484 147.891 60.9766C147.375 60.7969 146.93 60.5195 146.555 60.1445C146.188 59.7617 145.898 59.2734 145.688 58.6797C145.484 58.0781 145.383 57.3555 145.383 56.5117V48.3203H148.758V56.5352C148.758 56.9102 148.801 57.2266 148.887 57.4844C148.98 57.7422 149.109 57.9531 149.273 58.1172C149.438 58.2812 149.629 58.3984 149.848 58.4688C150.074 58.5391 150.324 58.5742 150.598 58.5742C151.293 58.5742 151.84 58.4336 152.238 58.1523C152.645 57.8711 152.93 57.4883 153.094 57.0039C153.266 56.5117 153.352 55.9648 153.352 55.3633ZM162.305 51.0859V61H158.93V48.3203H162.105L162.305 51.0859ZM166.125 48.2383L166.066 51.3672C165.902 51.3438 165.703 51.3242 165.469 51.3086C165.242 51.2852 165.035 51.2734 164.848 51.2734C164.371 51.2734 163.957 51.3359 163.605 51.4609C163.262 51.5781 162.973 51.7539 162.738 51.9883C162.512 52.2227 162.34 52.5078 162.223 52.8438C162.113 53.1797 162.051 53.5625 162.035 53.9922L161.355 53.7812C161.355 52.9609 161.438 52.207 161.602 51.5195C161.766 50.8242 162.004 50.2188 162.316 49.7031C162.637 49.1875 163.027 48.7891 163.488 48.5078C163.949 48.2266 164.477 48.0859 165.07 48.0859C165.258 48.0859 165.449 48.1016 165.645 48.1328C165.84 48.1562 166 48.1914 166.125 48.2383ZM174.574 57.4961C174.574 57.2539 174.504 57.0352 174.363 56.8398C174.223 56.6445 173.961 56.4648 173.578 56.3008C173.203 56.1289 172.66 55.9727 171.949 55.832C171.309 55.6914 170.711 55.5156 170.156 55.3047C169.609 55.0859 169.133 54.8242 168.727 54.5195C168.328 54.2148 168.016 53.8555 167.789 53.4414C167.562 53.0195 167.449 52.5391 167.449 52C167.449 51.4688 167.562 50.9688 167.789 50.5C168.023 50.0312 168.355 49.6172 168.785 49.2578C169.223 48.8906 169.754 48.6055 170.379 48.4023C171.012 48.1914 171.723 48.0859 172.512 48.0859C173.613 48.0859 174.559 48.2617 175.348 48.6133C176.145 48.9648 176.754 49.4492 177.176 50.0664C177.605 50.6758 177.82 51.3711 177.82 52.1523H174.445C174.445 51.8242 174.375 51.5312 174.234 51.2734C174.102 51.0078 173.891 50.8008 173.602 50.6523C173.32 50.4961 172.953 50.418 172.5 50.418C172.125 50.418 171.801 50.4844 171.527 50.6172C171.254 50.7422 171.043 50.9141 170.895 51.1328C170.754 51.3438 170.684 51.5781 170.684 51.8359C170.684 52.0312 170.723 52.207 170.801 52.3633C170.887 52.5117 171.023 52.6484 171.211 52.7734C171.398 52.8984 171.641 53.0156 171.938 53.125C172.242 53.2266 172.617 53.3203 173.062 53.4062C173.977 53.5938 174.793 53.8398 175.512 54.1445C176.23 54.4414 176.801 54.8477 177.223 55.3633C177.645 55.8711 177.855 56.5391 177.855 57.3672C177.855 57.9297 177.73 58.4453 177.48 58.9141C177.23 59.3828 176.871 59.793 176.402 60.1445C175.934 60.4883 175.371 60.7578 174.715 60.9531C174.066 61.1406 173.336 61.2344 172.523 61.2344C171.344 61.2344 170.344 61.0234 169.523 60.6016C168.711 60.1797 168.094 59.6445 167.672 58.9961C167.258 58.3398 167.051 57.668 167.051 56.9805H170.25C170.266 57.4414 170.383 57.8125 170.602 58.0938C170.828 58.375 171.113 58.5781 171.457 58.7031C171.809 58.8281 172.188 58.8906 172.594 58.8906C173.031 58.8906 173.395 58.832 173.684 58.7148C173.973 58.5898 174.191 58.4258 174.34 58.2227C174.496 58.0117 174.574 57.7695 174.574 57.4961Z" fill="#888888"/>
<path d="M113.18 109.93C113.18 109.398 113.102 108.922 112.945 108.5C112.789 108.062 112.5 107.656 112.078 107.281C111.656 106.906 111.047 106.531 110.25 106.156C109.469 105.766 108.438 105.359 107.156 104.938C105.656 104.438 104.211 103.875 102.82 103.25C101.43 102.609 100.188 101.867 99.0938 101.023C98 100.164 97.1328 99.1641 96.4922 98.0234C95.8516 96.8672 95.5312 95.5234 95.5312 93.9922C95.5312 92.5234 95.8594 91.2031 96.5156 90.0312C97.1719 88.8438 98.0859 87.8359 99.2578 87.0078C100.445 86.1641 101.836 85.5234 103.43 85.0859C105.023 84.6328 106.766 84.4062 108.656 84.4062C111.156 84.4062 113.359 84.8438 115.266 85.7188C117.188 86.5781 118.688 87.8047 119.766 89.3984C120.859 90.9766 121.406 92.8438 121.406 95H113.227C113.227 94.1406 113.047 93.3828 112.688 92.7266C112.344 92.0703 111.82 91.5547 111.117 91.1797C110.414 90.8047 109.531 90.6172 108.469 90.6172C107.438 90.6172 106.57 90.7734 105.867 91.0859C105.164 91.3984 104.633 91.8203 104.273 92.3516C103.914 92.8672 103.734 93.4375 103.734 94.0625C103.734 94.5781 103.875 95.0469 104.156 95.4688C104.453 95.875 104.867 96.2578 105.398 96.6172C105.945 96.9766 106.602 97.3203 107.367 97.6484C108.148 97.9766 109.023 98.2969 109.992 98.6094C111.805 99.1875 113.414 99.8359 114.82 100.555C116.242 101.258 117.438 102.062 118.406 102.969C119.391 103.859 120.133 104.875 120.633 106.016C121.148 107.156 121.406 108.445 121.406 109.883C121.406 111.414 121.109 112.773 120.516 113.961C119.922 115.148 119.07 116.156 117.961 116.984C116.852 117.797 115.523 118.414 113.977 118.836C112.43 119.258 110.703 119.469 108.797 119.469C107.047 119.469 105.32 119.25 103.617 118.812C101.93 118.359 100.398 117.672 99.0234 116.75C97.6484 115.812 96.5469 114.617 95.7188 113.164C94.9062 111.695 94.5 109.953 94.5 107.938H102.75C102.75 108.938 102.883 109.781 103.148 110.469C103.414 111.156 103.805 111.711 104.32 112.133C104.836 112.539 105.469 112.836 106.219 113.023C106.969 113.195 107.828 113.281 108.797 113.281C109.844 113.281 110.688 113.133 111.328 112.836C111.969 112.523 112.438 112.117 112.734 111.617C113.031 111.102 113.18 110.539 113.18 109.93ZM133.031 99.0547V119H125.133V93.6406H132.539L133.031 99.0547ZM132.094 105.453L130.242 105.5C130.242 103.562 130.477 101.836 130.945 100.32C131.414 98.7891 132.078 97.4922 132.938 96.4297C133.797 95.3672 134.82 94.5625 136.008 94.0156C137.211 93.4531 138.547 93.1719 140.016 93.1719C141.188 93.1719 142.258 93.3438 143.227 93.6875C144.211 94.0312 145.055 94.5859 145.758 95.3516C146.477 96.1172 147.023 97.1328 147.398 98.3984C147.789 99.6484 147.984 101.195 147.984 103.039V119H140.039V103.016C140.039 102 139.898 101.227 139.617 100.695C139.336 100.148 138.93 99.7734 138.398 99.5703C137.867 99.3672 137.219 99.2656 136.453 99.2656C135.641 99.2656 134.953 99.4219 134.391 99.7344C133.828 100.047 133.375 100.484 133.031 101.047C132.703 101.594 132.461 102.242 132.305 102.992C132.164 103.742 132.094 104.562 132.094 105.453ZM165.539 112.625V102.172C165.539 101.453 165.438 100.836 165.234 100.32C165.031 99.8047 164.711 99.4062 164.273 99.125C163.836 98.8281 163.25 98.6797 162.516 98.6797C161.922 98.6797 161.414 98.7812 160.992 98.9844C160.57 99.1875 160.25 99.4922 160.031 99.8984C159.812 100.305 159.703 100.82 159.703 101.445H151.805C151.805 100.273 152.062 99.1875 152.578 98.1875C153.109 97.1719 153.859 96.2891 154.828 95.5391C155.812 94.7891 156.984 94.2109 158.344 93.8047C159.719 93.3828 161.25 93.1719 162.938 93.1719C164.953 93.1719 166.75 93.5078 168.328 94.1797C169.922 94.8516 171.18 95.8594 172.102 97.2031C173.023 98.5312 173.484 100.203 173.484 102.219V112.602C173.484 114.258 173.578 115.516 173.766 116.375C173.953 117.219 174.219 117.961 174.562 118.602V119H166.641C166.266 118.219 165.984 117.266 165.797 116.141C165.625 115 165.539 113.828 165.539 112.625ZM166.5 103.508L166.547 107.727H163.055C162.32 107.727 161.695 107.828 161.18 108.031C160.68 108.234 160.273 108.516 159.961 108.875C159.664 109.219 159.445 109.609 159.305 110.047C159.18 110.484 159.117 110.945 159.117 111.43C159.117 111.898 159.227 112.32 159.445 112.695C159.68 113.055 159.992 113.336 160.383 113.539C160.773 113.742 161.211 113.844 161.695 113.844C162.57 113.844 163.312 113.68 163.922 113.352C164.547 113.008 165.023 112.594 165.352 112.109C165.68 111.625 165.844 111.172 165.844 110.75L167.578 113.984C167.266 114.609 166.906 115.242 166.5 115.883C166.109 116.523 165.617 117.117 165.023 117.664C164.445 118.195 163.734 118.633 162.891 118.977C162.047 119.305 161.023 119.469 159.82 119.469C158.258 119.469 156.82 119.148 155.508 118.508C154.211 117.867 153.172 116.977 152.391 115.836C151.609 114.68 151.219 113.352 151.219 111.852C151.219 110.539 151.453 109.367 151.922 108.336C152.406 107.305 153.133 106.43 154.102 105.711C155.07 104.992 156.305 104.445 157.805 104.07C159.305 103.695 161.07 103.508 163.102 103.508H166.5ZM185.836 98.5156V128.75H177.938V93.6406H185.297L185.836 98.5156ZM201.398 106.016V106.508C201.398 108.352 201.188 110.062 200.766 111.641C200.344 113.219 199.719 114.594 198.891 115.766C198.062 116.938 197.031 117.852 195.797 118.508C194.578 119.148 193.164 119.469 191.555 119.469C190.039 119.469 188.734 119.133 187.641 118.461C186.547 117.789 185.633 116.859 184.898 115.672C184.164 114.484 183.57 113.125 183.117 111.594C182.664 110.062 182.305 108.445 182.039 106.742V106.109C182.305 104.281 182.664 102.586 183.117 101.023C183.57 99.4453 184.164 98.0703 184.898 96.8984C185.633 95.7266 186.539 94.8125 187.617 94.1562C188.711 93.5 190.016 93.1719 191.531 93.1719C193.141 93.1719 194.555 93.4766 195.773 94.0859C197.008 94.6953 198.039 95.5703 198.867 96.7109C199.711 97.8359 200.344 99.1875 200.766 100.766C201.188 102.344 201.398 104.094 201.398 106.016ZM193.5 106.508V106.016C193.5 105.031 193.43 104.133 193.289 103.32C193.148 102.492 192.922 101.773 192.609 101.164C192.312 100.555 191.914 100.086 191.414 99.7578C190.914 99.4297 190.297 99.2656 189.562 99.2656C188.719 99.2656 188.008 99.3984 187.43 99.6641C186.867 99.9141 186.414 100.305 186.07 100.836C185.742 101.352 185.508 102 185.367 102.781C185.242 103.547 185.188 104.445 185.203 105.477V107.398C185.172 108.586 185.289 109.633 185.555 110.539C185.82 111.43 186.281 112.125 186.938 112.625C187.594 113.125 188.484 113.375 189.609 113.375C190.359 113.375 190.984 113.203 191.484 112.859C191.984 112.5 192.383 112.008 192.68 111.383C192.977 110.742 193.188 110.008 193.312 109.18C193.438 108.352 193.5 107.461 193.5 106.508ZM218.203 111.875C218.203 111.438 218.055 111.062 217.758 110.75C217.477 110.422 216.977 110.125 216.258 109.859C215.539 109.578 214.531 109.297 213.234 109.016C212 108.75 210.836 108.398 209.742 107.961C208.664 107.523 207.719 106.992 206.906 106.367C206.094 105.742 205.453 105 204.984 104.141C204.531 103.281 204.305 102.297 204.305 101.188C204.305 100.109 204.531 99.0938 204.984 98.1406C205.453 97.1719 206.133 96.3203 207.023 95.5859C207.93 94.8359 209.031 94.25 210.328 93.8281C211.625 93.3906 213.102 93.1719 214.758 93.1719C217.039 93.1719 219.008 93.5234 220.664 94.2266C222.32 94.9141 223.594 95.8828 224.484 97.1328C225.391 98.3672 225.844 99.7969 225.844 101.422H217.945C217.945 100.781 217.836 100.234 217.617 99.7812C217.414 99.3281 217.078 98.9844 216.609 98.75C216.141 98.5 215.516 98.375 214.734 98.375C214.188 98.375 213.688 98.4766 213.234 98.6797C212.797 98.8828 212.445 99.1641 212.18 99.5234C211.914 99.8828 211.781 100.305 211.781 100.789C211.781 101.133 211.859 101.445 212.016 101.727C212.188 101.992 212.445 102.242 212.789 102.477C213.133 102.695 213.57 102.898 214.102 103.086C214.633 103.258 215.273 103.414 216.023 103.555C217.727 103.867 219.32 104.312 220.805 104.891C222.289 105.469 223.492 106.289 224.414 107.352C225.352 108.414 225.82 109.844 225.82 111.641C225.82 112.766 225.562 113.805 225.047 114.758C224.531 115.695 223.789 116.523 222.82 117.242C221.852 117.945 220.688 118.492 219.328 118.883C217.969 119.273 216.438 119.469 214.734 119.469C212.312 119.469 210.266 119.039 208.594 118.18C206.922 117.305 205.656 116.211 204.797 114.898C203.953 113.57 203.531 112.227 203.531 110.867H210.891C210.922 111.648 211.109 112.289 211.453 112.789C211.812 113.289 212.289 113.656 212.883 113.891C213.477 114.125 214.164 114.242 214.945 114.242C215.664 114.242 216.258 114.141 216.727 113.938C217.211 113.734 217.578 113.461 217.828 113.117C218.078 112.758 218.203 112.344 218.203 111.875ZM237.258 83V119H229.359V83H237.258ZM236.32 105.453L234.469 105.5C234.469 103.719 234.688 102.078 235.125 100.578C235.562 99.0781 236.188 97.7734 237 96.6641C237.812 95.5547 238.789 94.6953 239.93 94.0859C241.07 93.4766 242.336 93.1719 243.727 93.1719C244.977 93.1719 246.117 93.3516 247.148 93.7109C248.195 94.0703 249.094 94.6484 249.844 95.4453C250.609 96.2422 251.195 97.2812 251.602 98.5625C252.023 99.8438 252.234 101.406 252.234 103.25V119H244.289V103.203C244.289 102.172 244.141 101.375 243.844 100.812C243.562 100.234 243.156 99.8359 242.625 99.6172C242.094 99.3828 241.445 99.2656 240.68 99.2656C239.758 99.2656 239.008 99.4219 238.43 99.7344C237.852 100.047 237.406 100.484 237.094 101.047C236.797 101.594 236.594 102.242 236.484 102.992C236.375 103.742 236.32 104.562 236.32 105.453ZM255.633 106.578V106.086C255.633 104.227 255.898 102.516 256.43 100.953C256.961 99.375 257.742 98.0078 258.773 96.8516C259.805 95.6953 261.078 94.7969 262.594 94.1562C264.109 93.5 265.859 93.1719 267.844 93.1719C269.844 93.1719 271.602 93.5 273.117 94.1562C274.648 94.7969 275.93 95.6953 276.961 96.8516C277.992 98.0078 278.773 99.375 279.305 100.953C279.836 102.516 280.102 104.227 280.102 106.086V106.578C280.102 108.422 279.836 110.133 279.305 111.711C278.773 113.273 277.992 114.641 276.961 115.812C275.93 116.969 274.656 117.867 273.141 118.508C271.625 119.148 269.875 119.469 267.891 119.469C265.906 119.469 264.148 119.148 262.617 118.508C261.086 117.867 259.805 116.969 258.773 115.812C257.742 114.641 256.961 113.273 256.43 111.711C255.898 110.133 255.633 108.422 255.633 106.578ZM263.531 106.086V106.578C263.531 107.531 263.602 108.422 263.742 109.25C263.883 110.078 264.117 110.805 264.445 111.43C264.773 112.039 265.219 112.516 265.781 112.859C266.344 113.203 267.047 113.375 267.891 113.375C268.719 113.375 269.406 113.203 269.953 112.859C270.516 112.516 270.961 112.039 271.289 111.43C271.617 110.805 271.852 110.078 271.992 109.25C272.133 108.422 272.203 107.531 272.203 106.578V106.086C272.203 105.164 272.133 104.297 271.992 103.484C271.852 102.656 271.617 101.93 271.289 101.305C270.961 100.664 270.516 100.164 269.953 99.8047C269.391 99.4453 268.688 99.2656 267.844 99.2656C267.016 99.2656 266.32 99.4453 265.758 99.8047C265.211 100.164 264.773 100.664 264.445 101.305C264.117 101.93 263.883 102.656 263.742 103.484C263.602 104.297 263.531 105.164 263.531 106.086ZM296.977 93.6406V99.125H281.695V93.6406H296.977ZM284.906 87.3359H292.805V110.727C292.805 111.398 292.883 111.922 293.039 112.297C293.195 112.656 293.461 112.914 293.836 113.07C294.227 113.211 294.742 113.281 295.383 113.281C295.836 113.281 296.211 113.273 296.508 113.258C296.805 113.227 297.086 113.188 297.352 113.141V118.789C296.68 119.008 295.977 119.172 295.242 119.281C294.508 119.406 293.727 119.469 292.898 119.469C291.211 119.469 289.766 119.203 288.562 118.672C287.375 118.141 286.469 117.305 285.844 116.164C285.219 115.023 284.906 113.539 284.906 111.711V87.3359ZM313.406 111.875C313.406 111.438 313.258 111.062 312.961 110.75C312.68 110.422 312.18 110.125 311.461 109.859C310.742 109.578 309.734 109.297 308.438 109.016C307.203 108.75 306.039 108.398 304.945 107.961C303.867 107.523 302.922 106.992 302.109 106.367C301.297 105.742 300.656 105 300.188 104.141C299.734 103.281 299.508 102.297 299.508 101.188C299.508 100.109 299.734 99.0938 300.188 98.1406C300.656 97.1719 301.336 96.3203 302.227 95.5859C303.133 94.8359 304.234 94.25 305.531 93.8281C306.828 93.3906 308.305 93.1719 309.961 93.1719C312.242 93.1719 314.211 93.5234 315.867 94.2266C317.523 94.9141 318.797 95.8828 319.688 97.1328C320.594 98.3672 321.047 99.7969 321.047 101.422H313.148C313.148 100.781 313.039 100.234 312.82 99.7812C312.617 99.3281 312.281 98.9844 311.812 98.75C311.344 98.5 310.719 98.375 309.938 98.375C309.391 98.375 308.891 98.4766 308.438 98.6797C308 98.8828 307.648 99.1641 307.383 99.5234C307.117 99.8828 306.984 100.305 306.984 100.789C306.984 101.133 307.062 101.445 307.219 101.727C307.391 101.992 307.648 102.242 307.992 102.477C308.336 102.695 308.773 102.898 309.305 103.086C309.836 103.258 310.477 103.414 311.227 103.555C312.93 103.867 314.523 104.312 316.008 104.891C317.492 105.469 318.695 106.289 319.617 107.352C320.555 108.414 321.023 109.844 321.023 111.641C321.023 112.766 320.766 113.805 320.25 114.758C319.734 115.695 318.992 116.523 318.023 117.242C317.055 117.945 315.891 118.492 314.531 118.883C313.172 119.273 311.641 119.469 309.938 119.469C307.516 119.469 305.469 119.039 303.797 118.18C302.125 117.305 300.859 116.211 300 114.898C299.156 113.57 298.734 112.227 298.734 110.867H306.094C306.125 111.648 306.312 112.289 306.656 112.789C307.016 113.289 307.492 113.656 308.086 113.891C308.68 114.125 309.367 114.242 310.148 114.242C310.867 114.242 311.461 114.141 311.93 113.938C312.414 113.734 312.781 113.461 313.031 113.117C313.281 112.758 313.406 112.344 313.406 111.875Z" fill="black"/>
<path d="M1134 0H1348C1356.28 0 1363 6.71573 1363 15V148C1363 156.284 1356.28 163 1348 163H1134V0Z" fill="#57CB7F"/>
<path fill-rule="evenodd" clip-rule="evenodd" d="M1202.75 46.5018C1202.75 45.3973 1203.65 44.5018 1204.75 44.5018H1292.25C1293.35 44.5018 1294.25 45.3973 1294.25 46.5018V116.498C1294.25 117.603 1293.35 118.498 1292.25 118.498H1204.75C1203.65 118.498 1202.75 117.603 1202.75 116.498V46.5018ZM1206.75 48.5018V52.9963H1290.25V48.5018H1206.75ZM1290.25 56.9963H1235.19V114.498H1290.25V56.9963ZM1231.19 114.498V56.9963H1206.75V114.498H1231.19Z" fill="white"/>
<path fill-rule="evenodd" clip-rule="evenodd" d="M1209.72 62.3022C1209.72 61.1976 1210.62 60.3022 1211.72 60.3022H1225.72C1226.83 60.3022 1227.72 61.1976 1227.72 62.3022V81.6974C1227.72 82.802 1226.83 83.6974 1225.72 83.6974H1211.72C1210.62 83.6974 1209.72 82.802 1209.72 81.6974V62.3022ZM1213.72 64.3022V79.6974H1223.72V64.3022H1213.72ZM1239.33 63.1982C1239.33 62.0936 1240.22 61.1982 1241.33 61.1982H1284.25C1285.36 61.1982 1286.25 62.0936 1286.25 63.1982V109.407C1286.25 110.511 1285.36 111.407 1284.25 111.407H1241.33C1240.22 111.407 1239.33 110.511 1239.33 109.407V63.1982ZM1243.33 65.1982V107.407H1282.25V65.1982H1243.33ZM1209.56 93.4381C1209.56 92.3336 1210.46 91.4381 1211.56 91.4381H1220.48C1221.59 91.4381 1222.48 92.3336 1222.48 93.4381C1222.48 94.5427 1221.59 95.4381 1220.48 95.4381H1211.56C1210.46 95.4381 1209.56 94.5427 1209.56 93.4381ZM1209.56 100.438C1209.56 99.3335 1210.46 98.4381 1211.56 98.4381H1226.1C1227.21 98.4381 1228.1 99.3335 1228.1 100.438C1228.1 101.543 1227.21 102.438 1226.1 102.438H1211.56C1210.46 102.438 1209.56 101.543 1209.56 100.438ZM1209.56 107.438C1209.56 106.334 1210.46 105.438 1211.56 105.438H1220.48C1221.59 105.438 1222.48 106.334 1222.48 107.438C1222.48 108.543 1221.59 109.438 1220.48 109.438H1211.56C1210.46 109.438 1209.56 108.543 1209.56 107.438Z" fill="white"/>
</svg>
